<?xml version="1.0" encoding="utf-8"?>
<!-- Generator: Adobe Illustrator 25.0.1, SVG Export Plug-In . SVG Version: 6.00 Build 0)  -->
<svg version="1.0" id="Layer_1" xmlns="http://www.w3.org/2000/svg" xmlns:xlink="http://www.w3.org/1999/xlink" x="0px" y="0px"
	 viewBox="0 0 1920 1080" style="enable-background:new 0 0 1920 1080;" xml:space="preserve">
<style type="text/css">
	.st0{fill:#4D4D4D;}
	.st1{fill:#FFFFFF;}
</style>
<g>
	<path class="st0" d="M960,982c-242.62,0-440-198.28-440-442S717.38,98,960,98s440,198.28,440,442S1202.62,982,960,982z M960,119.58
		c-230.77,0-418.52,188.6-418.52,420.42c0,231.82,187.75,420.42,418.52,420.42s418.52-188.6,418.52-420.42
		C1378.52,308.18,1190.77,119.58,960,119.58z"/>
	<g>
		<path class="st0" d="M960,804.6c-145.24,0-263.4-118.7-263.4-264.6S814.76,275.4,960,275.4c145.24,0,263.4,118.7,263.4,264.6
			S1105.24,804.6,960,804.6z M960,292.66c-135.77,0-246.22,110.95-246.22,247.34S824.23,787.33,960,787.33
			S1206.22,676.38,1206.22,540S1095.77,292.66,960,292.66z"/>
		<path class="st0" d="M960,776.39c-129.76,0-235.33-106.05-235.33-236.4S830.24,303.6,960,303.6
			c129.76,0,235.33,106.05,235.33,236.4S1089.76,776.39,960,776.39z M960,329.49c-115.55,0-209.55,94.43-209.55,210.5
			s94,210.5,209.55,210.5c115.55,0,209.55-94.43,209.55-210.5S1075.55,329.49,960,329.49z"/>
		<path class="st0" d="M960,641.79c-55.88,0-101.33-45.67-101.33-101.8c0-56.13,45.45-101.79,101.33-101.79
			c55.88,0,101.34,45.66,101.34,101.79C1061.34,596.13,1015.88,641.79,960,641.79z M960,446.84c-51.13,0-92.74,41.79-92.74,93.16
			c0,51.37,41.6,93.16,92.74,93.16c51.14,0,92.74-41.79,92.74-93.16C1052.74,488.63,1011.14,446.84,960,446.84z"/>
		<path class="st0" d="M1052.62,752.84l-3.44-6.71c-9.56-18.65-24.01-36.84-42.93-54.06c-26.36-23.98-66.13-23.98-92.5,0
			c-18.92,17.21-33.36,35.4-42.93,54.06l-3.44,6.71l-79.93-58.33l5.29-5.36c14.72-14.91,27.47-34.36,37.92-57.79
			c14.53-32.61,2.14-70.63-28.81-88.43c-22.06-12.68-43.67-20.81-64.22-24.18l-7.41-1.21l30.53-94.38l6.71,3.39
			c18.68,9.46,41.03,15.63,66.43,18.37c35.34,3.78,67.53-19.77,74.81-54.85c5.19-24.99,6.22-48.15,3.05-68.83l-1.14-7.46h98.8
			l-1.14,7.46c-3.17,20.67-2.14,43.83,3.05,68.83c7.28,35.07,39.46,58.62,74.81,54.85c25.41-2.73,47.75-8.91,66.44-18.37l6.71-3.39
			l30.53,94.38l-7.41,1.21c-20.55,3.36-42.15,11.5-64.22,24.18c-30.96,17.8-43.35,55.81-28.81,88.43
			c10.44,23.44,23.2,42.88,37.92,57.79l5.29,5.36L1052.62,752.84z M807.04,692.79l55.91,40.8c10.14-17.71,24.29-34.88,42.15-51.12
			c31.3-28.47,78.5-28.47,109.8,0c17.86,16.25,32.01,33.42,42.15,51.13l55.91-40.8c-13.64-15.18-25.52-34.03-35.38-56.15
			c-17.26-38.72-2.56-83.84,34.17-104.96c20.82-11.97,41.37-20.14,61.19-24.34l-21.35-66.02c-18.59,8.35-40.11,13.87-64.1,16.45
			c-41.93,4.51-80.16-23.46-88.81-65.07c-4.9-23.59-6.28-45.75-4.13-65.99h-69.11c2.15,20.24,0.76,42.4-4.13,65.98
			c-8.64,41.61-46.78,69.54-88.8,65.08c-23.98-2.57-45.5-8.1-64.09-16.45l-21.36,66.02c19.83,4.2,40.37,12.37,61.19,24.34
			c36.73,21.11,51.42,66.24,34.17,104.95C832.56,658.77,820.68,677.62,807.04,692.79z"/>
		<g>
			<g>
				<path class="st0" d="M977.34,374.24c0,14.56-7.77,26.37-17.34,26.37c-9.58,0-17.34-11.81-17.34-26.37
					c0-14.56,7.77-26.37,17.34-26.37C969.58,347.87,977.34,359.68,977.34,374.24z"/>
				<path class="st0" d="M935.95,386.8c5.17,8.9,13.2,24.58,25.6,23.03c10.93-1.37,17.55-14.58,22.51-23.03
					c0.43,13.77-7.85,31.68-23.5,32.1C944.32,419.34,935.54,400.92,935.95,386.8z"/>
			</g>
			<g>
				<path class="st0" d="M808.43,472.21c13.79,4.5,22.57,15.57,19.61,24.72c-2.96,9.15-16.54,12.92-30.33,8.42
					c-13.79-4.5-22.57-15.57-19.61-24.72C781.06,471.48,794.64,467.71,808.43,472.21z"/>
				<path class="st0" d="M807.53,515.64c10.02-2.19,27.35-5.01,29.72-17.34c2.08-10.87-8.38-21.27-14.85-28.62
					c13.17,3.85,27.57,17.28,23.13,32.37C840.92,517.7,820.77,520.39,807.53,515.64z"/>
			</g>
			<g>
				<path class="st0" d="M848.98,663.86c8.52-11.78,21.71-16.75,29.46-11.09c7.75,5.66,7.12,19.79-1.4,31.58
					c-8.52,11.78-21.71,16.75-29.46,11.09C839.83,689.78,840.46,675.64,848.98,663.86z"/>
				<path class="st0" d="M889.82,678.14c1.02-10.25,3.71-27.68-7.23-33.75c-9.64-5.35-22.73,1.44-31.69,5.35
					c7.71-11.39,24.88-20.99,37.8-12.09C902.09,646.87,898.41,666.96,889.82,678.14z"/>
			</g>
			<g>
				<path class="st0" d="M1042.96,684.34c-8.52-11.78-9.15-25.92-1.4-31.58c7.75-5.66,20.94-0.69,29.46,11.09
					c8.52,11.78,9.15,25.92,1.4,31.58C1064.67,701.09,1051.48,696.12,1042.96,684.34z"/>
				<path class="st0" d="M1069.1,649.74c-9.39-4.14-25.06-12.09-34.19-3.52c-8.04,7.56-5.66,22.16-4.73,31.92
					c-8.4-10.89-12.19-30.26,0.23-39.85C1043.29,628.35,1061.17,638.07,1069.1,649.74z"/>
			</g>
			<g>
				<path class="st0" d="M1122.29,505.35c-13.79,4.5-27.37,0.73-30.33-8.42c-2.96-9.15,5.82-20.22,19.61-24.72
					c13.79-4.5,27.37-0.73,30.33,8.42C1144.86,489.78,1136.08,500.85,1122.29,505.35z"/>
				<path class="st0" d="M1097.61,469.68c-6.82,7.69-19.2,20.21-13.9,31.57c4.67,10.02,19.23,12.26,28.76,14.38
					c-12.9,4.66-32.42,2.29-37.66-12.53C1069.39,487.73,1084.12,473.65,1097.61,469.68z"/>
			</g>
		</g>
		<g>
			<path class="st0" d="M1001.27,624.91h-82.55c-4.64,0-8.96-2.51-11.29-6.55l-41.27-71.82c-2.32-4.04-2.32-9.06,0-13.1l41.27-71.81
				c2.32-4.04,6.65-6.54,11.29-6.54h82.55c4.64,0,8.96,2.51,11.29,6.54l41.27,71.82c2.32,4.04,2.32,9.06,0,13.1l-41.27,71.81
				C1010.24,622.4,1005.91,624.91,1001.27,624.91z M918.73,468.04l-41.4,71.89l41.27,71.96l82.68,0.08l5.71,3.16l-5.58-3.24
				l41.27-71.81l-41.27-71.96L918.73,468.04z"/>
			<path class="st0" d="M994.43,606.67h-68.87c-2.4,0-4.63-1.29-5.83-3.38l-34.42-59.91c-1.2-2.09-1.2-4.67,0-6.75l34.42-59.92
				c1.21-2.09,3.44-3.38,5.83-3.38h68.87c2.4,0,4.63,1.3,5.83,3.38l34.43,59.91c1.2,2.08,1.2,4.68-0.01,6.76l-34.42,59.9
				C999.07,605.37,996.83,606.67,994.43,606.67z M992.82,598.97L992.82,598.97L992.82,598.97z M926.64,598.04h66.72l33.36-58.04
				l-33.36-58.04h-66.71L893.3,540L926.64,598.04z M1027.25,540.94C1027.26,540.94,1027.26,540.95,1027.25,540.94L1027.25,540.94z
				 M1027.25,539.06L1027.25,539.06L1027.25,539.06z"/>
			<path class="st0" d="M960,599.46c-32.64,0-59.19-26.68-59.19-59.46c0-32.79,26.56-59.46,59.19-59.46s59.19,26.68,59.19,59.46
				C1019.19,572.78,992.64,599.46,960,599.46z M960,489.16c-27.9,0-50.6,22.8-50.6,50.83c0,28.03,22.7,50.83,50.6,50.83
				s50.6-22.8,50.6-50.83C1010.6,511.97,987.9,489.16,960,489.16z"/>
			<ellipse class="st0" cx="960" cy="540" rx="36.3" ry="36.47"/>
			<path class="st1" d="M978.15,558.23c15.43-25.19-11.17-51.85-36.29-36.46c8.79-13.07,28.04-13.13,38.72-2.44
				C991.25,530.01,991.1,549.43,978.15,558.23z"/>
		</g>
	</g>
	<path class="st0" d="M1184.49,860.93c-26.94,19.36-53.98,36.23-84.38,49.68c-33.16,14.66-70.58,24.16-106.62,27.54
		c-76.31,7.15-150.85-6.97-219.26-41.61c-100.24-50.76-177.15-149.58-200.88-259.85c-9.19-42.68-12.52-87.02-6.88-130.47
		c4.75-36.62,14.77-70.72,28.27-104.94c-18.17,65.19-25.63,132-12.75,199.08c14.58,75.93,49.07,144.32,101.49,200.96
		c71.8,77.57,181.01,125.88,286.66,122.46c41.11-1.33,80.56-6.81,119.98-18.94C1123.58,894.53,1154.23,878.22,1184.49,860.93z"/>
	<path class="st0" d="M960,846.41c-168.19,0-305.03-137.46-305.03-306.42c0-168.95,136.83-306.41,305.03-306.41
		S1265.03,371.04,1265.03,540C1265.03,708.96,1128.19,846.41,960,846.41z M960,246.53c-161.08,0-292.14,131.65-292.14,293.47
		c0,161.82,131.05,293.47,292.14,293.47c161.09,0,292.14-131.65,292.14-293.47C1252.14,378.18,1121.08,246.53,960,246.53z"/>
</g>
</svg>
